<?xml version="1.0" encoding="utf-8"?>
<!-- Generator: Adobe Illustrator 21.0.2, SVG Export Plug-In . SVG Version: 6.00 Build 0)  -->
<svg version="1.1" id="Layer_1" xmlns="http://www.w3.org/2000/svg" xmlns:xlink="http://www.w3.org/1999/xlink" x="0px" y="0px"
	 viewBox="0 0 700.5 700" style="enable-background:new 0 0 700.5 700;" xml:space="preserve">
<style type="text/css">
	.st0{fill:#E3E3E3;stroke:#777777;stroke-width:7;stroke-miterlimit:10;}
</style>
<path class="st0" d="M596.4,586.2c0-34.3-18.9-65.1-49.7-80.5L439,452.4c-14.2-7.1-22.5-21.3-22.5-36.7V373c3.6-3.6,5.9-8.3,10.7-13
	c14.2-20.1,26-43.8,33.2-67.5c14.2-4.7,23.7-16.6,23.7-32v-45c0-9.5-4.7-18.9-10.7-24.9v-65.1c0,0,13-100.6-123.1-100.6
	C211.8,24.9,226,125.5,226,125.5v65.1c-7.1,5.9-10.7,15.4-10.7,24.9v45c0,11.8,5.9,22.5,15.4,28.4C241.4,337.4,271,373,271,373v41.4
	c0,15.4-8.3,28.4-21.3,35.5l-100.6,54.5c-28.4,15.4-47.4,46.2-47.4,79.3v24.9c0,0,0,7.1,0,10.7c0,30.8,110.1,55.6,247.4,55.6
	s247.4-24.9,247.4-55.6c0-3.6,0-10.7,0-10.7L596.4,586.2L596.4,586.2z"/>
</svg>
